<svg xmlns="http://www.w3.org/2000/svg" viewBox="0 0 600 480" preserveAspectRatio="none">
  <title>실제 지리정보가 아닌 단순한 지도 디자인 예시</title>
  <rect width="600" height="480" fill="#F7F8F1"/>
  <g fill="#F2F5EC" stroke="#E5EBE0" stroke-width="3">
    <rect x="-12" y="-16" width="174" height="180" rx="24"/>
    <rect x="188" y="-16" width="176" height="180" rx="24"/>
    <rect x="390" y="-16" width="230" height="180" rx="24"/>
    <rect x="-12" y="190" width="174" height="146" rx="24"/>
    <rect x="188" y="190" width="176" height="146" rx="24"/>
    <rect x="390" y="190" width="230" height="146" rx="24"/>
    <rect x="-12" y="362" width="174" height="140" rx="24"/>
    <rect x="188" y="362" width="176" height="140" rx="24"/>
    <rect x="390" y="362" width="230" height="140" rx="24"/>
  </g>
  <g fill="#FFFFFF">
    <rect x="166" y="0" width="18" height="480"/>
    <rect x="368" y="0" width="18" height="480"/>
    <rect x="0" y="168" width="600" height="18"/>
    <rect x="0" y="340" width="600" height="18"/>
  </g>
  <rect x="238" y="204" width="108" height="100" rx="18" fill="#E4EDCE"/>
  <rect x="251" y="217" width="82" height="74" rx="22" fill="#DAE6C2"/>
  <g fill="#798479" font-family="system-ui, 'Malgun Gothic', sans-serif" font-size="16" text-anchor="middle">
    <text x="113" y="280">주차장</text>
    <text x="459" y="264">공원</text>
  </g>
</svg>
